<?xml version="1.0" encoding="UTF-8" standalone="no"?>
<svg
   xmlns:dc="http://purl.org/dc/elements/1.1/"
   xmlns:cc="http://creativecommons.org/ns#"
   xmlns:rdf="http://www.w3.org/1999/02/22-rdf-syntax-ns#"
   xmlns:svg="http://www.w3.org/2000/svg"
   xmlns="http://www.w3.org/2000/svg"
   viewBox="0 0 176 36"
   height="36"
   width="176"
   xml:space="preserve"
   id="svg2"
   version="1.1"><metadata
     id="metadata8"><rdf:RDF><cc:Work
         rdf:about=""><dc:format>image/svg+xml</dc:format><dc:type
           rdf:resource="http://purl.org/dc/dcmitype/StillImage" /></cc:Work></rdf:RDF></metadata><defs
     id="defs6" /><g
     transform="matrix(1.3333333,0,0,-1.3333333,0,36)"
     id="g10"><g
       transform="scale(0.1)"
       id="g12"><path
         id="path14"
         style="fill:#00274c;fill-opacity:1;fill-rule:nonzero;stroke:none"
         d="m 436.559,7.53906 h 3.75 v 259.922 h -3.75 z" /><path
         id="path16"
         style="fill:#ffcb05;fill-opacity:1;fill-rule:nonzero;stroke:none"
         d="M 181.762,52.8906 107.301,154.609 V 80.5898 h 29.578 V 7.53906 H 0 V 80.5898 H 27.7305 V 194.379 H 0 v 73.082 h 107.539 l 74.223,-102.5 74.218,102.5 h 107.5 V 194.379 H 335.738 V 80.5898 H 363.48 V 7.53906 H 226.602 V 80.5898 h 29.57 v 74.0192 z" /><path
         id="path18"
         style="fill:#00274c;fill-opacity:1;fill-rule:nonzero;stroke:none"
         d="M 571.988,7.53906 V 118.051 c 0,9.609 -5.148,14.41 -15.468,14.41 h -18 V 7.53906 H 514.77 V 267.461 h 48.941 c 10.82,0 18.629,-2.77 23.437,-8.281 4.762,-5.551 7.192,-13.59 7.192,-24.141 V 170.59 c 0,-9.11 -1.918,-15.82 -5.789,-20.16 -3.821,-4.301 -10.192,-6.95 -19.063,-7.891 11.063,0 18.242,-2.66 21.602,-7.93 3.359,-5.269 5.039,-13.089 5.039,-23.398 V 7.53906 Z M 570.59,230.352 c 0,6.25 -0.981,10.589 -2.891,12.968 -1.918,2.418 -5.668,3.59 -11.179,3.59 h -18 v -93.941 h 14.761 c 6.25,0 10.699,1.211 13.321,3.59 2.66,2.39 3.988,6.722 3.988,12.972 z" /><path
         id="path20"
         style="fill:#00274c;fill-opacity:1;fill-rule:nonzero;stroke:none"
         d="m 717.109,43.1602 c 0,-13.1993 -3.988,-22.8086 -11.91,-28.7813 -7.898,-6.01952 -17.738,-9.02734 -29.5,-9.02734 -13.429,0 -23.668,3.59766 -30.621,10.82034 -6.957,7.1875 -10.547,17.7383 -10.777,31.6797 V 226.41 c 0,15.11 3.238,26.168 9.719,33.121 6.492,6.949 17.031,10.43 31.679,10.43 27.582,0 41.41,-14.762 41.41,-44.262 z M 693.32,223.52 c 0,9.371 -1.332,16.21 -3.941,20.539 -2.66,4.3 -7.078,6.562 -13.328,6.839 -3.821,0 -6.832,-0.738 -9.02,-2.187 -2.152,-1.441 -3.941,-3.481 -5.39,-6.09 -1.442,-2.66 -2.379,-5.43 -2.852,-8.281 -0.508,-2.891 -0.738,-6.02 -0.738,-9.379 V 47.8516 c 0,-15.1211 5.5,-22.6914 16.558,-22.6914 12.5,0 18.711,8.2812 18.711,24.8398 z" /><path
         id="path22"
         style="fill:#00274c;fill-opacity:1;fill-rule:nonzero;stroke:none"
         d="m 836.949,42.4609 c 0,-7.9296 -1.051,-14.1796 -3.238,-18.75 C 831.559,19.1797 828.32,15.6992 824.02,13.2813 819.691,10.8984 814.879,9.33984 809.609,8.58984 804.34,7.89063 798.32,7.53906 791.602,7.53906 H 755.23 V 267.461 h 50.79 c 5.968,0 10.89,-0.981 14.761,-2.891 3.828,-1.91 6.949,-4.57 9.34,-7.929 2.418,-3.36 3.859,-7.071 4.328,-11.172 0.473,-4.059 0.942,-8.008 1.449,-11.879 v -61.91 c 0,-10.078 -1.918,-17.149 -5.777,-21.25 -3.832,-4.059 -10.551,-6.481 -20.16,-7.192 5.777,-0.968 10.309,-2.027 13.668,-3.238 3.359,-1.211 6.141,-2.77 8.281,-4.691 2.192,-1.911 3.481,-4.528 3.988,-7.887 0.473,-3.363 0.821,-7.344 1.051,-11.91 z M 812.148,226.762 c 0,7.687 -1.558,12.968 -4.687,15.859 -3.121,2.848 -8.512,4.289 -16.211,4.289 h -12.621 v -94.289 h 11.172 c 8.871,0 14.769,1.168 17.66,3.59 2.848,2.379 4.418,7.418 4.687,15.117 z m 1.051,-111.602 c 0,4.57 -0.699,8.512 -2.148,11.871 -1.211,2.66 -3.473,4.34 -6.832,5.039 -3.36,0.739 -9.379,1.211 -18.008,1.45 h -7.582 V 28.0508 h 14.422 c 6.719,0 11.75,1.0898 15.109,3.2383 3.36,2.1523 5.039,6.9492 5.039,14.4101 z" /><path
         id="path24"
         style="fill:#00274c;fill-opacity:1;fill-rule:nonzero;stroke:none"
         d="m 957.23,43.1602 c 0,-13.1993 -3.992,-22.8086 -11.921,-28.7813 -7.887,-6.01952 -17.731,-9.02734 -29.489,-9.02734 -13.441,0 -23.629,3.59766 -30.621,10.82034 -6.961,7.1875 -10.551,17.7383 -10.789,31.6797 V 226.41 c 0,15.11 3.25,26.168 9.731,33.121 6.48,6.949 17.031,10.43 31.679,10.43 27.578,0 41.41,-14.762 41.41,-44.262 z M 933.441,223.52 c 0,9.371 -1.293,16.21 -3.953,20.539 -2.648,4.3 -7.066,6.562 -13.316,6.839 -3.832,0 -6.832,-0.738 -8.981,-2.187 -2.191,-1.441 -3.992,-3.481 -5.429,-6.09 -1.453,-2.66 -2.383,-5.43 -2.852,-8.281 -0.512,-2.891 -0.75,-6.02 -0.75,-9.379 V 47.8516 c 0,-15.1211 5.512,-22.6914 16.57,-22.6914 12.5,0 18.711,8.2812 18.711,24.8398 z" /><path
         id="path26"
         style="fill:#00274c;fill-opacity:1;fill-rule:nonzero;stroke:none"
         d="M 1034.26,246.91 V 7.53906 h -23.75 V 246.91 h -26.639 v 20.551 h 77.379 V 246.91 Z" /><path
         id="path28"
         style="fill:#00274c;fill-opacity:1;fill-rule:nonzero;stroke:none"
         d="m 1087.89,7.53906 h 23.75 v 259.922 h -23.75 z" /><path
         id="path30"
         style="fill:#00274c;fill-opacity:1;fill-rule:nonzero;stroke:none"
         d="m 1222.19,42.8086 c 0,-10.5781 -2.89,-19.4492 -8.67,-26.6367 -5.75,-7.22268 -15.36,-10.82034 -28.79,-10.82034 -7.19,0 -13.09,0.97657 -17.62,2.88672 -4.57,1.92192 -8.28,4.69142 -11.17,8.28122 -2.89,3.6016 -4.92,7.4297 -6.14,11.5313 -1.21,4.0586 -1.79,8.75 -1.79,14.0195 V 235.781 c 0,4.297 0.7,8.52 2.15,12.578 1.44,4.102 3.63,7.692 6.48,10.821 2.89,3.09 6.6,5.742 11.17,7.89 4.57,2.192 10.08,3.129 16.57,2.891 6.95,0 12.85,-0.941 17.61,-2.891 4.81,-1.91 8.67,-4.648 11.53,-8.281 2.89,-3.59 5.03,-7.66 6.48,-12.23 1.45,-4.571 2.19,-9.489 2.19,-14.758 V 199.77 h -23.79 v 32.378 c 0,4.571 -0.59,8.793 -1.8,12.622 -1.21,3.82 -4.8,5.851 -10.78,6.128 -3.12,0 -5.55,-0.628 -7.23,-1.796 -1.68,-1.211 -3.08,-2.774 -4.29,-4.692 -1.21,-1.91 -1.8,-4.211 -1.8,-6.832 0,-2.656 -0.23,-5.039 -0.74,-7.226 V 41.0195 c 0,-11.0586 4.1,-16.5703 12.26,-16.5703 9.57,0 14.38,5.9805 14.38,18.0117 v 36.3282 h 23.79 z" /><path
         id="path32"
         style="fill:#00274c;fill-opacity:1;fill-rule:nonzero;stroke:none"
         d="m 1319.02,43.8711 c 0,-5.043 -0.74,-9.8125 -2.18,-14.3828 -1.45,-4.5664 -3.72,-8.6289 -6.84,-12.2578 -3.12,-3.6016 -7.19,-6.4492 -12.23,-8.64066 -5.04,-2.14062 -11.05,-3.23828 -18,-3.23828 -12.97,0 -22.54,3.35938 -28.79,10.07814 -6.25,6.7187 -9.38,14.8789 -9.38,24.4922 v 39.6094 h 23.75 V 45.3086 c 0,-5.0391 0.86,-9.5703 2.54,-13.668 1.68,-4.0625 5.74,-6.25 12.23,-6.4804 6.25,0 10.35,2.0312 12.26,6.1289 1.92,4.0625 2.85,8.8711 2.85,14.4101 v 33.0899 c 0,5.7812 -0.7,11.0507 -2.14,15.8593 -1.45,4.8008 -3.01,8.7496 -4.69,11.8716 l -34.92,60.859 c -4.07,6.723 -6.72,12.582 -7.89,17.621 -1.21,5.039 -1.96,11.41 -2.19,19.102 v 27.699 c 0,25.429 12.73,38.16 38.16,38.16 7.46,0 13.56,-0.941 18.36,-2.891 4.81,-1.91 8.52,-4.531 11.17,-7.89 2.62,-3.36 4.57,-7.34 5.75,-11.91 1.21,-4.54 1.68,-9.34 1.44,-14.379 v -32.422 h -23.75 v 32.769 c 0,11.762 -4.33,17.66 -12.97,17.66 -9.61,0 -14.37,-6.128 -14.37,-18.359 v -24.141 c 0,-3.597 0,-6.718 0,-9.339 0,-2.649 0.35,-5.039 1.05,-7.219 0.74,-2.149 1.56,-4.301 2.54,-6.488 0.94,-2.153 2.38,-4.922 4.3,-8.282 l 35.27,-60.468 c 3.87,-6.481 6.25,-12.34 7.23,-17.6528 0.94,-5.2773 1.44,-11.0195 1.44,-17.2695 z" /></g></g></svg>